# xmcd
# 
# Track frame offsets:
#     150
#     16762
#     37242
#     73690
#     94767
#     119550
#     156650
#     181752
#     215080
#     230735
#     250482
#     279417
#     302495
# 
# Disc length: 4415
# 
# Revision: 10
# Processed by: cddbd v1.5.2PL0 Copyright (c) Steve Scherf et al.
# Submitted via: fre:ac v1.1beta1pre4
# 
DISCID=bf113d0d
DTITLE=Clapton Eric - The Very Best - Blues And Ballads
DYEAR=1994
DGENRE=Ballad
TTITLE0=Wonderful Tonight
TTITLE1=Tears In Heaven
TTITLE2=Double Trouble (Live)
TTITLE3=Layla (Unplugged)
TTITLE4=Pretty Girl
TTITLE5=Same Old Blues
TTITLE6=Running On Faith
TTITLE7=Rambling On My Mind (Live)
TTITLE8=Please Be With Me
TTITLE9=Knockin' On Heaven's Door
TTITLE10=Old Love
TTITLE11=It All Depends
TTITLE12=It's Probably Me (Bonus Track)
EXTD=
EXTT0=
EXTT1=
EXTT2=
EXTT3=
EXTT4=
EXTT5=
EXTT6=
EXTT7=
EXTT8=
EXTT9=
EXTT10=
EXTT11=
EXTT12=
PLAYORDER=
